<svg xmlns="http://www.w3.org/2000/svg" xmlns:svg="http://www.w3.org/2000/svg" id="svg33" width="120" height="120" jetway-hooks="{}" version="1.1" viewBox="0 0 120 120"><title id="title2">Logo_Horizontal</title><desc id="desc4">Created with Sketch.</desc><g id="icon_color" fill="#0097a7" jetway-hook-id="A05C76A9-8735-4C64-9E8E-78C56C56AB5B" style="fill-rule:evenodd;stroke:none;stroke-width:1"><circle id="Oval-Copy-4" cx="72" cy="24" r="8" jetway-hook-id="BE75AAAD-497C-4871-9916-2E65AAA14770"/><path id="Combined-Shape-Copy" d="m 16,72 0.0038,-0.249179 C 16.135457,67.447838 19.665086,64 24,64 c 4.418278,0 8,3.581722 8,8 v 0 24 c 0,4.41828 -3.581722,8 -8,8 -4.418278,0 -8,-3.58172 -8,-8 v 0 z" jetway-hook-id="991EA392-1161-446A-A164-169FD12133A1"/><path id="Combined-Shape-Copy-2" d="m 16,24 0.0038,-0.249179 C 16.135457,19.447838 19.665086,16 24,16 c 4.418278,0 8,3.581722 8,8 v 0 24 c 0,4.418278 -3.581722,8 -8,8 -4.418278,0 -8,-3.581722 -8,-8 v 0 z" jetway-hook-id="7216CE56-7552-41B3-94CC-877E663202BF"/><path id="Combined-Shape-Copy-3" d="m 40,24 0.0038,-0.249179 C 40.135457,19.447838 43.665086,16 48,16 c 4.418278,0 8,3.581722 8,8 v 0 48 c 0,4.418278 -3.581722,8 -8,8 -4.418278,0 -8,-3.581722 -8,-8 v 0 z" jetway-hook-id="F8764171-1509-461C-8500-8650BF29D9F6"/><path id="Combined-Shape-Copy-4" d="m 88,24 0.0038,-0.249179 C 88.135457,19.447838 91.665086,16 96,16 c 4.41828,0 8,3.581722 8,8 v 0 72 c 0,4.41828 -3.58172,8 -8,8 -4.418278,0 -8,-3.58172 -8,-8 v 0 z" jetway-hook-id="1858DCAA-A9F0-400A-9AC8-2D473AEE1E9E"/><path id="Combined-Shape-Copy-5" d="m 64,48 0.0038,-0.249179 C 64.135457,43.447838 67.665086,40 72,40 c 4.418278,0 8,3.581722 8,8 v 0 48 c 0,4.41828 -3.581722,8 -8,8 -4.418278,0 -8,-3.58172 -8,-8 v 0 z" jetway-hook-id="9F979FBE-22D2-4A84-8071-AAFFA45B628D"/><circle id="Oval-Copy-33" cx="48" cy="96" r="8" jetway-hook-id="A58DB531-1558-4C8C-87FD-72AFB48F4C81"/></g><metadata id="metadata232"/></svg>