<?xml version="1.0" encoding="UTF-8" standalone="no"?>
<svg
   width="120"
   height="120"
   viewBox="0 0 120 120"
   version="1.1"
   jetway-hooks="{}"
   id="svg33"
   sodipodi:docname="mediapipe_icon.svg"
   inkscape:version="1.2 (dc2aeda, 2022-05-15)"
   xmlns:inkscape="http://www.inkscape.org/namespaces/inkscape"
   xmlns:sodipodi="http://sodipodi.sourceforge.net/DTD/sodipodi-0.dtd"
   xmlns="http://www.w3.org/2000/svg"
   xmlns:svg="http://www.w3.org/2000/svg"
   xmlns:rdf="http://www.w3.org/1999/02/22-rdf-syntax-ns#"
   xmlns:cc="http://creativecommons.org/ns#"
   xmlns:dc="http://purl.org/dc/elements/1.1/">
  <defs
     id="defs37" />
  <sodipodi:namedview
     id="namedview35"
     pagecolor="#ffffff"
     bordercolor="#666666"
     borderopacity="1.0"
     inkscape:showpageshadow="2"
     inkscape:pageopacity="0.0"
     inkscape:pagecheckerboard="0"
     inkscape:deskcolor="#d1d1d1"
     showgrid="false"
     inkscape:zoom="1.9666667"
     inkscape:cx="250.9322"
     inkscape:cy="61.779661"
     inkscape:window-width="1475"
     inkscape:window-height="633"
     inkscape:window-x="1955"
     inkscape:window-y="304"
     inkscape:window-maximized="0"
     inkscape:current-layer="svg33"
     showguides="true">
    <sodipodi:guide
       position="120,70.677966"
       orientation="1,0"
       id="guide248"
       inkscape:locked="false" />
  </sodipodi:namedview>
  <!-- Generator: Sketch 61.1 (89650) - https://sketch.com -->
  <title
     id="title2">Logo_Horizontal</title>
  <desc
     id="desc4">Created with Sketch.</desc>
  <g
     jetway-hook-id="A05C76A9-8735-4C64-9E8E-78C56C56AB5B"
     id="icon_color"
     fill="#0097a7"
     style="fill-rule:evenodd;stroke:none;stroke-width:1">
    <circle
       jetway-hook-id="BE75AAAD-497C-4871-9916-2E65AAA14770"
       id="Oval-Copy-4"
       cx="72"
       cy="24"
       r="8" />
    <path
       d="m 16,72 0.0038,-0.249179 C 16.135457,67.447838 19.665086,64 24,64 c 4.418278,0 8,3.581722 8,8 v 0 24 c 0,4.41828 -3.581722,8 -8,8 -4.418278,0 -8,-3.58172 -8,-8 v 0 z"
       jetway-hook-id="991EA392-1161-446A-A164-169FD12133A1"
       id="Combined-Shape-Copy" />
    <path
       d="m 16,24 0.0038,-0.249179 C 16.135457,19.447838 19.665086,16 24,16 c 4.418278,0 8,3.581722 8,8 v 0 24 c 0,4.418278 -3.581722,8 -8,8 -4.418278,0 -8,-3.581722 -8,-8 v 0 z"
       jetway-hook-id="7216CE56-7552-41B3-94CC-877E663202BF"
       id="Combined-Shape-Copy-2" />
    <path
       d="m 40,24 0.0038,-0.249179 C 40.135457,19.447838 43.665086,16 48,16 c 4.418278,0 8,3.581722 8,8 v 0 48 c 0,4.418278 -3.581722,8 -8,8 -4.418278,0 -8,-3.581722 -8,-8 v 0 z"
       jetway-hook-id="F8764171-1509-461C-8500-8650BF29D9F6"
       id="Combined-Shape-Copy-3" />
    <path
       d="m 88,24 0.0038,-0.249179 C 88.135457,19.447838 91.665086,16 96,16 c 4.41828,0 8,3.581722 8,8 v 0 72 c 0,4.41828 -3.58172,8 -8,8 -4.418278,0 -8,-3.58172 -8,-8 v 0 z"
       jetway-hook-id="1858DCAA-A9F0-400A-9AC8-2D473AEE1E9E"
       id="Combined-Shape-Copy-4" />
    <path
       d="m 64,48 0.0038,-0.249179 C 64.135457,43.447838 67.665086,40 72,40 c 4.418278,0 8,3.581722 8,8 v 0 48 c 0,4.41828 -3.581722,8 -8,8 -4.418278,0 -8,-3.58172 -8,-8 v 0 z"
       jetway-hook-id="9F979FBE-22D2-4A84-8071-AAFFA45B628D"
       id="Combined-Shape-Copy-5" />
    <circle
       jetway-hook-id="A58DB531-1558-4C8C-87FD-72AFB48F4C81"
       id="Oval-Copy-33"
       cx="48"
       cy="96"
       r="8" />
  </g>
  <metadata
     id="metadata232">
    <rdf:RDF>
      <cc:Work
         rdf:about="">
        <dc:title>Logo_Horizontal</dc:title>
      </cc:Work>
    </rdf:RDF>
  </metadata>
</svg>
